<svg xmlns="http://www.w3.org/2000/svg" viewBox="0 0 200 157"><defs><style>.cls-1{fill:#ccc;}.cls-2{fill:#f2f2f2;}</style></defs><g id="Layer_2" data-name="Layer 2"><g id="Layer_1-2" data-name="Layer 1"><path class="cls-1" d="M3,156.5A2.5,2.5,0,0,1,.5,154V3A2.5,2.5,0,0,1,3,.5H53A2.5,2.5,0,0,1,55.5,3V5A3.5,3.5,0,0,0,59,8.5H197a2.5,2.5,0,0,1,2.5,2.5V154a2.5,2.5,0,0,1-2.5,2.5Z"/><path d="M53,1a2,2,0,0,1,2,2V5a4,4,0,0,0,4,4H197a2,2,0,0,1,2,2V154a2,2,0,0,1-2,2H3a2,2,0,0,1-2-2V3A2,2,0,0,1,3,1H53m0-1H3A3,3,0,0,0,0,3V154a3,3,0,0,0,3,3H197a3,3,0,0,0,3-3V11a3,3,0,0,0-3-3H59a3,3,0,0,1-3-3V3a3,3,0,0,0-3-3Z"/><rect class="cls-2" x="0.5" y="14.5" width="199" height="142" rx="2.5"/><path d="M197,15a2,2,0,0,1,2,2V154a2,2,0,0,1-2,2H3a2,2,0,0,1-2-2V17a2,2,0,0,1,2-2H197m0-1H3a3,3,0,0,0-3,3V154a3,3,0,0,0,3,3H197a3,3,0,0,0,3-3V17a3,3,0,0,0-3-3Z"/></g></g></svg>